<?xml version="1.0" encoding="UTF-8" standalone="no"?>
<svg width="294px" height="236px" viewBox="0 0 294 236" version="1.1" xmlns="http://www.w3.org/2000/svg" xmlns:xlink="http://www.w3.org/1999/xlink" xmlns:sketch="http://www.bohemiancoding.com/sketch/ns">
    <!-- Generator: Sketch 3.1.1 (8761) - http://www.bohemiancoding.com/sketch -->
    <title>Shape</title>
    <desc>Created with Sketch.</desc>
    <defs></defs>
    <g id="Page-1" stroke="none" stroke-width="1" fill="none" fill-rule="evenodd" sketch:type="MSPage">
        <path d="M119.379,19.797 L118.787,39.139 L40.826,39.139 L40.826,53.941 L119.774,53.941 L119.774,79.599 L54.642,79.599 L54.642,93.613 L120.76,93.02 L187.076,92.428 L185.892,97.165 C182.931,108.613 170.3,139.205 167.931,140.191 C166.55,140.586 156.879,138.415 146.024,135.257 C113.063,125.191 96.681,122.231 74.379,122.231 C51.681,122.428 36.879,126.573 22.668,136.639 C-4.963,156.376 -7.134,195.06 18.524,216.573 C45.76,239.468 90.366,241.639 130.826,221.902 C145.234,214.994 171.089,196.244 179.774,186.573 L183.326,182.428 L194.576,187.955 C205.826,193.678 275.3,225.849 287.142,230.784 L293.458,233.547 L293.458,182.823 L276.287,178.284 C260.695,174.139 220.826,161.705 207.997,156.77 L203.063,154.797 L209.576,141.376 C216.484,127.56 230.3,88.481 230.3,82.757 C230.3,79.994 226.352,79.599 195.76,79.599 L161.221,79.599 L161.221,53.941 L244.116,53.941 L244.116,40.915 C244.116,40.323 225.366,39.928 202.668,40.126 L161.221,40.323 L161.221,0.652 L119.971,0.652 L119.379,19.797 L119.379,19.797 Z M111.681,148.481 C121.945,152.034 135.563,157.56 141.879,160.915 L153.326,167.034 L147.01,174.928 C143.458,179.27 135.366,186.77 128.655,191.705 C106.155,208.481 85.234,214.994 58.392,213.415 C30.366,211.836 15.366,200.389 13.589,179.073 C12.405,165.849 15.366,158.349 24.445,151.441 C35.892,142.757 45.168,140.784 70.431,141.376 C89.774,141.968 95.892,143.152 111.681,148.481 L111.681,148.481 Z" id="Shape" fill="#5D696F" sketch:type="MSShapeGroup"></path>
    </g>
</svg>