<?xml version="1.0" encoding="UTF-8" standalone="no"?>
<svg width="378px" height="314px" viewBox="0 0 378 314" version="1.1" xmlns="http://www.w3.org/2000/svg" xmlns:xlink="http://www.w3.org/1999/xlink" xmlns:sketch="http://www.bohemiancoding.com/sketch/ns">
    <!-- Generator: Sketch 3.1.1 (8761) - http://www.bohemiancoding.com/sketch -->
    <title>Layer 1</title>
    <desc>Created with Sketch.</desc>
    <defs></defs>
    <g id="Page-1" stroke="none" stroke-width="1" fill="none" fill-rule="evenodd" sketch:type="MSPage">
        <g id="Layer-1" sketch:type="MSLayerGroup" fill="#51C332">
            <path d="M109.601,2.59251282 C-1.759,22.6100128 -38.879,149.231519 49.7,207.188673 C54.557,210.330686 54.557,209.982468 47.271,231.861827 L41.027,250.598167 L63.461,238.495077 L85.895,226.391987 L97.806,229.301519 C110.294,232.443532 126.253,234.654615 136.891,234.654615 L143.252,234.654615 L141.054,226.1585 C123.593,161.451353 183.956,97.3259103 262.475,97.3259103 L273.114,97.3259103 L270.917,89.6449872 C253.686,29.0107821 180.95,-10.2090256 109.601,2.59251282 L109.601,2.59251282 Z M99.887,59.2695128 C111.682,67.3006667 112.376,84.6411154 101.043,92.0895577 C82.657,104.192647 61.148,82.8949936 73.521,64.7393526 C78.956,56.5934679 92.024,53.9164167 99.887,59.2695128 L99.887,59.2695128 Z M194.711,59.2695128 C214.138,72.4212821 199.568,102.79575 177.827,94.4163782 C162.101,88.3648333 160.25,66.6022179 174.936,58.8045513 C180.718,55.6625385 189.738,55.8950192 194.711,59.2695128 L194.711,59.2695128 Z M237.613,107.218923 C182.453,117.34341 144.177,159.47275 146.374,207.887122 C149.265,272.711013 224.777,317.40066 297.282,297.38316 L305.839,295.055333 L323.879,304.831603 C333.824,310.301442 342.15,314.258647 342.381,313.792679 C342.613,313.210974 340.647,306.2285 338.103,298.198353 C332.321,280.275192 332.205,281.555346 339.953,275.969769 C427.144,213.007737 350.592,86.6197179 237.613,107.218923 L237.613,107.218923 Z M235.416,159.47275 C240.272,162.731506 242.816,170.878397 240.735,176.814205 C236.341,189.499 217.492,190.429929 212.403,178.210096 C206.621,164.128404 222.58,151.093378 235.416,159.47275 L235.416,159.47275 Z M312.662,160.869647 C320.294,168.201346 319.022,180.654667 310.118,185.309314 C296.473,192.291788 282.134,178.32684 289.188,164.94259 C293.813,156.330737 305.724,154.236397 312.662,160.869647 L312.662,160.869647 Z" id="Shape" sketch:type="MSShapeGroup"></path>
        </g>
    </g>
</svg>